<svg width="100" height="100" viewBox="0 0 100 100" fill="none" xmlns="http://www.w3.org/2000/svg">
<circle cx="50" cy="50" r="50" fill="black"/>
<g filter="url(#filter0_d_16_2)">
<path d="M36.2784 41C36.1572 39.4848 35.589 38.303 34.5739 37.4545C33.5739 36.6061 32.0511 36.1818 30.0057 36.1818C28.7027 36.1818 27.6345 36.3409 26.8011 36.6591C25.983 36.9621 25.3769 37.3788 24.983 37.9091C24.589 38.4394 24.3845 39.0455 24.3693 39.7273C24.339 40.2879 24.4375 40.7955 24.6648 41.25C24.9072 41.6894 25.286 42.0909 25.8011 42.4545C26.3163 42.803 26.9754 43.1212 27.7784 43.4091C28.5814 43.697 29.536 43.9545 30.642 44.1818L34.4602 45C37.036 45.5455 39.2405 46.2652 41.0739 47.1591C42.9072 48.053 44.4072 49.1061 45.5739 50.3182C46.7405 51.5152 47.5966 52.8636 48.142 54.3636C48.7027 55.8636 48.9905 57.5 49.0057 59.2727C48.9905 62.3333 48.2254 64.9242 46.7102 67.0455C45.1951 69.1667 43.0284 70.7803 40.2102 71.8864C37.4072 72.9924 34.036 73.5455 30.0966 73.5455C26.0511 73.5455 22.5208 72.947 19.5057 71.75C16.5057 70.553 14.1723 68.7121 12.5057 66.2273C10.8542 63.7273 10.0208 60.5303 10.0057 56.6364H22.0057C22.0814 58.0606 22.4375 59.2576 23.0739 60.2273C23.7102 61.197 24.6042 61.9318 25.7557 62.4318C26.9223 62.9318 28.3087 63.1818 29.9148 63.1818C31.2633 63.1818 32.392 63.0152 33.3011 62.6818C34.2102 62.3485 34.8996 61.8864 35.3693 61.2955C35.839 60.7045 36.0814 60.0303 36.0966 59.2727C36.0814 58.5606 35.8466 57.9394 35.392 57.4091C34.9527 56.8636 34.2254 56.3788 33.2102 55.9545C32.1951 55.5152 30.8239 55.1061 29.0966 54.7273L24.4602 53.7273C20.339 52.8333 17.089 51.3409 14.7102 49.25C12.3466 47.1439 11.1723 44.2727 11.1875 40.6364C11.1723 37.6818 11.9602 35.0985 13.5511 32.8864C15.1572 30.6591 17.3769 28.9242 20.2102 27.6818C23.0587 26.4394 26.3239 25.8182 30.0057 25.8182C33.7633 25.8182 37.0133 26.447 39.7557 27.7045C42.4981 28.9621 44.6117 30.7348 46.0966 33.0227C47.5966 35.2955 48.3542 37.9545 48.3693 41H36.2784ZM53.8125 73V26.4545H73.9034C77.358 26.4545 80.3807 27.1364 82.9716 28.5C85.5625 29.8636 87.5777 31.7803 89.017 34.25C90.4564 36.7197 91.1761 39.6061 91.1761 42.9091C91.1761 46.2424 90.4337 49.1288 88.9489 51.5682C87.4792 54.0076 85.411 55.8864 82.7443 57.2045C80.0928 58.5227 76.9943 59.1818 73.4489 59.1818H61.4489V49.3636H70.9034C72.3883 49.3636 73.6534 49.1061 74.6989 48.5909C75.7595 48.0606 76.5701 47.3106 77.1307 46.3409C77.7064 45.3712 77.9943 44.2273 77.9943 42.9091C77.9943 41.5758 77.7064 40.4394 77.1307 39.5C76.5701 38.5455 75.7595 37.8182 74.6989 37.3182C73.6534 36.803 72.3883 36.5455 70.9034 36.5455H66.4489V73H53.8125Z" fill="white"/>
</g>
<defs>
<filter id="filter0_d_16_2" x="6.00562" y="25.8182" width="89.1704" height="55.7272" filterUnits="userSpaceOnUse" color-interpolation-filters="sRGB">
<feFlood flood-opacity="0" result="BackgroundImageFix"/>
<feColorMatrix in="SourceAlpha" type="matrix" values="0 0 0 0 0 0 0 0 0 0 0 0 0 0 0 0 0 0 127 0" result="hardAlpha"/>
<feOffset dy="4"/>
<feGaussianBlur stdDeviation="2"/>
<feComposite in2="hardAlpha" operator="out"/>
<feColorMatrix type="matrix" values="0 0 0 0 0 0 0 0 0 0 0 0 0 0 0 0 0 0 0.25 0"/>
<feBlend mode="normal" in2="BackgroundImageFix" result="effect1_dropShadow_16_2"/>
<feBlend mode="normal" in="SourceGraphic" in2="effect1_dropShadow_16_2" result="shape"/>
</filter>
</defs>
</svg>
